<svg id="Layer_1" data-name="Layer 1" xmlns="http://www.w3.org/2000/svg" viewBox="0 0 21 15.38"><defs><style>.cls-1{fill:#00cee2;}</style></defs><title>Artboard 1</title><path class="cls-1" d="M18.7,4.77a6.83,6.83,0,0,0-8.89-2.5A6.65,6.65,0,0,0,8,3.64c-.25,0-.56,0-.84,0A5.84,5.84,0,0,0,1.61,7.44a6,6,0,0,0-.28,3,5.89,5.89,0,0,0,2.43,3.91C5.48,15.5,6.66,15.37,9,15.37H12.2a6.87,6.87,0,0,0,5.71-2.21l.64-.81c.06-.07,0,0,.08-.07a2.9,2.9,0,0,1,.28-.51A6.81,6.81,0,0,0,19.58,10,7,7,0,0,0,18.7,4.77ZM4.4,13.51A4.86,4.86,0,0,1,7.92,4.69a5.86,5.86,0,0,1,3.4,2.18l.69.7c.18.18.53.43.55.85a.83.83,0,0,1-.57.83.91.91,0,0,1-1-.35L9.63,7.49A3.49,3.49,0,0,0,8,6.38,3.22,3.22,0,1,0,7.2,12.7c.29,0,.3.11.46.27l.34.34.71.64a4.78,4.78,0,0,1,.54.39C7.43,14.41,5.92,14.52,4.4,13.51Zm14-3.06a5.52,5.52,0,0,1-.93,1.69,5.78,5.78,0,0,1-5.52,2.12c-2.2-.36-3.27-1.73-4.65-3.13C7,10.86,6.11,10.05,6,9.72a.81.81,0,0,1,.78-1.06c.45,0,.79.47,1.15.84l2,2a4.14,4.14,0,0,0,2.77,1.2A4.25,4.25,0,0,0,16.31,6a4.2,4.2,0,0,0-4.94-1.48c-.25.1-.47.25-.68.33s-.23-.16-.35-.24A7.09,7.09,0,0,0,9.17,4c.08-.25,1.26-.86,1.46-.94a5.86,5.86,0,0,1,7.75,7.43Z"/></svg>