<?xml version="1.0" encoding="utf-8"?>
<!-- Generator: Adobe Illustrator 20.1.0, SVG Export Plug-In . SVG Version: 6.00 Build 0)  -->
<svg version="1.1" id="Layer_1" xmlns="http://www.w3.org/2000/svg" xmlns:xlink="http://www.w3.org/1999/xlink" x="0px" y="0px"
	 viewBox="0 0 35.2 34.8" style="enable-background:new 0 0 35.2 34.8;" xml:space="preserve">
<style type="text/css">
	.st0{fill:#FFFFFF;}
</style>
<title>ic_behance</title>
<path class="st0" d="M15.5,14.3c0-1.4-1-1.4-1-1.4h-4v3h3.7C14.9,15.9,15.5,15.7,15.5,14.3z M14.5,18h-4v3.6h3.8
	c0.8,0.1,1.6-0.6,1.7-1.4c0-0.1,0-0.2,0-0.4C15.9,18,14.5,18,14.5,18L14.5,18z M24.7,15.9c-1.2,0-2.2,0.9-2.4,2.1h4.5
	c0-1.1-0.8-2-1.9-2.1C24.8,15.9,24.7,15.9,24.7,15.9L24.7,15.9z M17.6,0C7.9-0.1,0.1,7.7,0,17.4C0.1,27,7.9,34.8,17.6,34.8
	c0,0,0,0,0,0c9.7,0.1,17.5-7.7,17.6-17.4c0,0,0,0,0,0C35.1,7.7,27.2-0.1,17.6,0z M21.7,11.3h5.7v1.7h-5.7L21.7,11.3z M18.8,20
	c0,4.1-4.4,4-4.4,4H7.4V10.5h7.1c2.2,0,3.9,1.2,3.9,3.6c0.1,1.3-0.8,2.4-2.1,2.6C19,16.7,18.8,20,18.8,20L18.8,20z M29.4,19.8h-7.1
	c-0.1,1.2,0.9,2.3,2.1,2.4c0.1,0,0.2,0,0.3,0c2.3,0,2.2-1.5,2.2-1.5h2.4c0,3.9-4.7,3.6-4.7,3.6c-5.6,0-5.3-5.1-5.3-5.1
	s0-5.2,5.3-5.2C30.2,13.9,29.4,19.8,29.4,19.8z"/>
</svg>
