<svg id="Layer_1" data-name="Layer 1" xmlns="http://www.w3.org/2000/svg" viewBox="0 0 35.16 34.75"><title>ic_behance</title><path d="M16.09,14.92c0-1.4-1-1.4-1-1.4h-4v3h3.74C15.52,16.53,16.09,16.32,16.09,14.92Zm-1,3.68h-4v3.6h3.78a1.53,1.53,0,0,0,1.64-1.75C16.57,18.59,15.12,18.6,15.12,18.6Zm10.2-2.07a2.43,2.43,0,0,0-2.41,2.07h4.5A2,2,0,0,0,25.33,16.53ZM18.21.63A17.48,17.48,0,0,0,.63,18,17.48,17.48,0,0,0,18.21,35.38,17.48,17.48,0,0,0,35.79,18,17.48,17.48,0,0,0,18.21.63Zm4.12,11.29H28v1.66H22.33Zm-2.85,8.71c0,4.11-4.35,4-4.35,4H8V11.12h7.12c2.16,0,3.87,1.18,3.87,3.59a2.36,2.36,0,0,1-2.09,2.56C19.66,17.28,19.47,20.62,19.47,20.62ZM30,20.39H22.94a2.22,2.22,0,0,0,2.41,2.35c2.28,0,2.2-1.45,2.2-1.45H30c0,3.85-4.69,3.59-4.69,3.59-5.62,0-5.26-5.15-5.26-5.15s0-5.18,5.26-5.18C30.81,14.55,30,20.4,30,20.39Z" transform="translate(-0.63 -0.63)"/></svg>