<svg id="Layer_1" data-name="Layer 1" xmlns="http://www.w3.org/2000/svg" viewBox="0 0 148 148"><defs><style>.cls-1{fill:none;stroke:#00cee2;stroke-miterlimit:10;stroke-width:2px;}.cls-2{fill:#00cee2;}</style></defs><title>Artboard 1</title><path class="cls-1" d="M74,4A70,70,0,1,1,4,74,70,70,0,0,1,74,4Z"/><path class="cls-2" d="M79.13,113.39v16.88l5.13-5.13,5.13,5.13V113.39A12,12,0,0,1,79.13,113.39Z"/><circle class="cls-2" cx="84.25" cy="102.58" r="8.55"/><path class="cls-2" d="M89.35,49.59h17.12L86,25.67v20.5A3.42,3.42,0,0,0,89.35,49.59Z"/><path class="cls-2" d="M82.55,46.18V25.67H48.39a6.86,6.86,0,0,0-6.87,6.85h0V111.1A6.84,6.84,0,0,0,48.3,118H75.71v-7a12,12,0,1,1,17.09,0v7h6.85a6.82,6.82,0,0,0,6.83-6.81s0,0,0,0V53H89.4a6.83,6.83,0,0,1-6.85-6.81ZM51.78,39.34H75.71v3.42H51.78Zm0,10.25H75.71V53H51.78ZM96.22,83.78H51.78V80.36H96.22Zm0-10.25H51.78V70.1H96.22Zm0-10.25H51.78V59.85H96.22Z"/></svg>