<svg id="Layer_1" data-name="Layer 1" xmlns="http://www.w3.org/2000/svg" viewBox="0 0 35.16 34.78"><title>ic_dribbble</title><path d="M17.57,14.15a70.59,70.59,0,0,0-4.41-6.76,11.78,11.78,0,0,0-6.55,8.2A44.36,44.36,0,0,0,17.57,14.15Zm8.5-5A12,12,0,0,0,15.43,6.6a59.52,59.52,0,0,1,4.44,6.85C24.34,11.79,26,9.24,26.06,9.2ZM20.24,19.93c-7,2.41-9.29,7.28-9.31,7.33a12,12,0,0,0,11.93,1.56,48.36,48.36,0,0,0-2.54-8.91ZM15.38,6.61h0ZM19,18.1l.47-.14c-.3-.67-.62-1.34-1-2A44,44,0,0,1,6.37,17.64c0,.12,0,.25,0,.37a11.62,11.62,0,0,0,3,7.84A18.71,18.71,0,0,1,19,18.1Zm3.5,1.26a50.26,50.26,0,0,1,2.31,8.38,11.73,11.73,0,0,0,5.09-7.87A17.39,17.39,0,0,0,22.54,19.36ZM18.21.61A17.49,17.49,0,0,0,.63,18,17.49,17.49,0,0,0,18.21,35.39,17.49,17.49,0,0,0,35.79,18,17.49,17.49,0,0,0,18.21.61ZM31,23.36a13.66,13.66,0,0,1-1.28,2.34,14,14,0,0,1-23,0A13.65,13.65,0,0,1,8.4,8.29a13.89,13.89,0,0,1,7-3.75,14.12,14.12,0,0,1,5.6,0,13.91,13.91,0,0,1,8.72,5.78,13.62,13.62,0,0,1,1.28,13ZM20.78,15.2c.28.56.54,1.13.79,1.7l.26.61a27.79,27.79,0,0,1,8.27.38,11.61,11.61,0,0,0-2.7-7.34A15.23,15.23,0,0,1,20.78,15.2Z" transform="translate(-0.63 -0.61)"/></svg>