<?xml version="1.0" encoding="utf-8"?>
<!-- Generator: Adobe Illustrator 20.1.0, SVG Export Plug-In . SVG Version: 6.00 Build 0)  -->
<svg version="1.1" id="Layer_1" xmlns="http://www.w3.org/2000/svg" xmlns:xlink="http://www.w3.org/1999/xlink" x="0px" y="0px"
	 viewBox="0 0 35.2 34.8" style="enable-background:new 0 0 35.2 34.8;" xml:space="preserve">
<style type="text/css">
	.st0{fill:#FFFFFF;}
</style>
<title>ic_dribbble</title>
<path class="st0" d="M16.9,13.5c-1.3-2.3-2.8-4.6-4.4-6.8C9.2,8.3,6.8,11.4,6,15C9.7,15,13.4,14.5,16.9,13.5z M25.4,8.5
	C22.5,6,18.6,5.1,14.8,6c1.6,2.2,3.1,4.5,4.4,6.9C23.7,11.2,25.4,8.6,25.4,8.5L25.4,8.5z M19.6,19.3c-7,2.4-9.3,7.3-9.3,7.3
	c3.4,2.6,8,3.2,11.9,1.6C21.7,25.2,20.8,22.2,19.6,19.3L19.6,19.3z M14.8,6L14.8,6z M18.4,17.5l0.5-0.1c-0.3-0.7-0.6-1.3-1-2
	c-3.9,1.1-8,1.7-12.1,1.7c0,0.1,0,0.3,0,0.4c0,2.9,1.1,5.7,3,7.8C11,21.6,14.4,18.9,18.4,17.5z M21.9,18.8c1,2.7,1.8,5.5,2.3,8.4
	c2.7-1.8,4.6-4.7,5.1-7.9C26.9,18.6,24.4,18.4,21.9,18.8L21.9,18.8z M17.6,0C7.9,0,0.1,7.7,0,17.4C0.1,27,7.9,34.8,17.6,34.8
	c9.7,0,17.5-7.7,17.6-17.4C35.1,7.7,27.2,0,17.6,0z M30.4,22.8c-0.3,0.8-0.8,1.6-1.3,2.3C24.7,31.4,16,33,9.6,28.6
	c-1.4-1-2.6-2.1-3.5-3.5c-3.7-5.4-3-12.8,1.7-17.4c1.9-1.9,4.4-3.2,7-3.8c1.8-0.4,3.8-0.4,5.6,0c3.5,0.7,6.7,2.8,8.7,5.8
	C31.7,13.5,32.2,18.4,30.4,22.8L30.4,22.8z M20.2,14.6c0.3,0.6,0.5,1.1,0.8,1.7l0.3,0.6c2.8-0.3,5.5-0.2,8.3,0.4
	c0-2.7-1-5.3-2.7-7.3C25,12.1,22.7,13.7,20.2,14.6z"/>
</svg>
