<svg id="Layer_1" data-name="Layer 1" xmlns="http://www.w3.org/2000/svg" viewBox="0 0 35.2 34.8"><title>Artboard 1</title><path d="M17.47,20.31a3.17,3.17,0,1,0-3.18-3.18A3.18,3.18,0,0,0,17.47,20.31Z"/><polygon points="24.41 13.24 24.41 10.58 24.41 10.18 24.01 10.18 21.35 10.19 21.36 13.25 24.41 13.24"/><path d="M22.41,17.13a4.94,4.94,0,1,1-9.52-1.85h-2.7v7.4a1.73,1.73,0,0,0,1.73,1.73H23a1.73,1.73,0,0,0,1.73-1.73v-7.4H22A4.91,4.91,0,0,1,22.41,17.13Z"/><path d="M17.6,0A17.52,17.52,0,0,0,0,17.4a17.6,17.6,0,0,0,35.2,0A17.58,17.58,0,0,0,17.6,0Zm8.9,15.28v7.4A3.49,3.49,0,0,1,23,26.16H11.92a3.5,3.5,0,0,1-3.49-3.49V11.59A3.5,3.5,0,0,1,11.92,8.1H23a3.5,3.5,0,0,1,3.49,3.49Z"/></svg>