<?xml version="1.0" encoding="utf-8"?>
<!-- Generator: Adobe Illustrator 20.1.0, SVG Export Plug-In . SVG Version: 6.00 Build 0)  -->
<svg version="1.1" id="Layer_1" xmlns="http://www.w3.org/2000/svg" xmlns:xlink="http://www.w3.org/1999/xlink" x="0px" y="0px"
	 viewBox="0 0 35.2 34.8" style="enable-background:new 0 0 35.2 34.8;" xml:space="preserve">
<style type="text/css">
	.st0{fill:#FFFFFF;}
</style>
<title>ic_linkedin</title>
<path class="st0" d="M17.6,0C7.9,0,0.1,7.7,0,17.4C0.1,27,7.9,34.8,17.6,34.8c9.7,0,17.5-7.7,17.6-17.4C35.1,7.7,27.2,0,17.6,0z
	 M12.9,25.1H9.4V13.7h3.5L12.9,25.1z M11.1,12.3c-1.2,0-2.1-0.9-2.1-2.1C9,9,10,8.1,11.1,8.1c1.2,0,2.1,0.9,2.1,2.1
	C13.2,11.3,12.3,12.3,11.1,12.3C11.1,12.3,11.1,12.3,11.1,12.3z M26.2,25.1h-3.5v-5.9c0-1.6-0.6-2.5-1.9-2.5s-2.2,1-2.2,2.5v5.9
	h-3.4V13.7h3.4v1.5c0.7-1.2,2.1-1.9,3.4-1.9c2.4,0,4.2,1.5,4.2,4.5L26.2,25.1z"/>
</svg>
