<svg id="Layer_4" data-name="Layer 4" xmlns="http://www.w3.org/2000/svg" viewBox="0 0 21 15.38"><defs><style>.cls-1{fill:#00cee2;}</style></defs><title>Artboard 1</title><path class="cls-1" d="M19.69,3.62a2,2,0,0,0-2.77,0A2,2,0,0,0,16.6,4L11,2.45a1.34,1.34,0,1,0-2.47.85L2,10.28H2a1.24,1.24,0,1,0,.88,2.11l.05-.05,5.52,1.33a1.77,1.77,0,0,0,3.54,0h0l4.11-1.68a1.34,1.34,0,0,0,1.61-2.1l-.07-.07.64-2.81h.05a2,2,0,0,0,1.38-3.33ZM3.21,11.45a1.18,1.18,0,0,0,0-.24L6.75,9.86l.07.07a1.28,1.28,0,0,0,.91.38h.18l1.12,2-.09.08a1.75,1.75,0,0,0-.3.4ZM14,7.11l2.24-.85L14.72,7.9Zm-3.69.4V4.19L12.49,6.7ZM9,9l.41-.15v2.23l-.7-1.24A1.27,1.27,0,0,0,9,9Zm.41-1.14-.76.29,0,0L8.5,8l.92-3.87Zm.93.64,2.77-1,1,1.12L10.84,12a1.76,1.76,0,0,0-.49-.11Zm6-3.26-3,1.11-2.52-3,5.46,1.54s0,0,0,.07A2,2,0,0,0,16.36,5.24ZM7.61,7.74A1.28,1.28,0,0,0,6.44,9l-3,1.12L8.27,5Zm4,4.78,3.09-3.23.82,1a1.34,1.34,0,0,0,0,.91l-3.74,1.53Zm5.14-3.09a1.33,1.33,0,0,0-.59.14l-.82-1,1.9-2,.13.08Z"/></svg>