<svg id="Layer_5" data-name="Layer 5" xmlns="http://www.w3.org/2000/svg" viewBox="0 0 21 15.38"><defs><style>.cls-1{fill:#00cee2;}</style></defs><title>Artboard 1</title><path class="cls-1" d="M14.28,11.33a3.22,3.22,0,0,1-1.46,1.08,6,6,0,0,1-2.26.39A5.61,5.61,0,0,1,8,12.27a3.39,3.39,0,0,1-1.19-1A2.23,2.23,0,0,1,6.33,10a.88.88,0,0,1,.3-.66A1.07,1.07,0,0,1,7.38,9,1,1,0,0,1,8,9.25a1.6,1.6,0,0,1,.42.6,3.29,3.29,0,0,0,.41.72,1.53,1.53,0,0,0,.6.46,2.5,2.5,0,0,0,1,.18A2.59,2.59,0,0,0,12,10.84a1,1,0,0,0,.53-.88.86.86,0,0,0-.28-.67,2,2,0,0,0-.77-.42c-.33-.1-.78-.21-1.33-.32A10.53,10.53,0,0,1,8.23,8,3.16,3.16,0,0,1,7,7.12,2.18,2.18,0,0,1,6.53,5.7,2.25,2.25,0,0,1,7,4.28a3,3,0,0,1,1.4-.95A6.2,6.2,0,0,1,10.53,3a5.81,5.81,0,0,1,1.68.22,3.71,3.71,0,0,1,1.19.58,2.53,2.53,0,0,1,.7.77,1.66,1.66,0,0,1,.22.8.94.94,0,0,1-.29.68,1,1,0,0,1-.74.3.91.91,0,0,1-.62-.19,2.24,2.24,0,0,1-.43-.56,2.37,2.37,0,0,0-.65-.78,2,2,0,0,0-1.2-.27,2.31,2.31,0,0,0-1.25.3.8.8,0,0,0-.44.67.59.59,0,0,0,.15.41,1.32,1.32,0,0,0,.43.32,3.39,3.39,0,0,0,.58.22l1,.24c.59.12,1.12.26,1.6.41a5,5,0,0,1,1.23.55,2.43,2.43,0,0,1,.81.84,2.47,2.47,0,0,1,.29,1.24A2.63,2.63,0,0,1,14.28,11.33ZM17.79,8A7.22,7.22,0,0,0,9.35,1,4.22,4.22,0,0,0,7.13.39,4.13,4.13,0,0,0,2.94,4.48a4,4,0,0,0,.57,2.07A6.83,6.83,0,0,0,3.37,8a7.13,7.13,0,0,0,7.21,7,7.77,7.77,0,0,0,1.32-.12,4.21,4.21,0,0,0,2,.48,4.14,4.14,0,0,0,4.18-4.08,4,4,0,0,0-.44-1.82A6.86,6.86,0,0,0,17.79,8Z"/></svg>