<svg id="Layer_2" data-name="Layer 2" xmlns="http://www.w3.org/2000/svg" viewBox="0 0 21 15.38"><defs><style>.cls-1{fill:#00cee2;}</style></defs><title>Artboard 1</title><path class="cls-1" d="M18.13,6.07V6a.63.63,0,0,0,0-.21v0a.59.59,0,0,0,0-.11l0-.06v0l-2.75-4.1,0,0-.06-.06-.11-.09-.07,0-.15,0h0L10.54.89h-.09L6.17,1.2H6.12L6,1.26l-.07,0-.11.09-.06.06,0,0L3,5.57v0l0,.06a.59.59,0,0,0,0,.11v0a.65.65,0,0,0,0,.21v0a.67.67,0,0,0,.06.16l0,.06,0,0,7,8.82h0a.61.61,0,0,0,.18.15l0,0a.53.53,0,0,0,.47,0l0,0a.6.6,0,0,0,.18-.15h0l7-8.82,0,0,0-.06A.63.63,0,0,0,18.13,6.07Zm-1.76-.78h-.71L15.57,4.1ZM6.93,6.55h7.14L10.5,13.41ZM6.79,2.42l2-.15L6.64,4.36Zm7.57,1.94L12.18,2.27l2,.15Zm-.82.93H7.46l3-2.92Zm-8.19,0H4.63l.8-1.19Z"/></svg>