<svg id="Layer_1" data-name="Layer 1" xmlns="http://www.w3.org/2000/svg" viewBox="0 0 35.2 34.8"><defs><style>.cls-1{fill:#fff;}</style></defs><title>Artboard 1</title><path class="cls-1" d="M17.6,0A17.52,17.52,0,0,0,0,17.4a17.6,17.6,0,0,0,35.2,0A17.58,17.58,0,0,0,17.6,0Zm12,11.4a9.11,9.11,0,0,1-1.1,1.2c-.9.9-.9,1-.9,1.7a15,15,0,0,1-1.1,4.8,14.37,14.37,0,0,1-5.2,6.2A13.26,13.26,0,0,1,11,26.5a12.15,12.15,0,0,1-3-1.4A8.87,8.87,0,0,1,9.3,25a7.63,7.63,0,0,0,4.2-1.2l.9-.5-1-.3a4.74,4.74,0,0,1-2.9-2.6c-.3-.4-.3-.4.6-.4H12l-.8-.4a6.09,6.09,0,0,1-2.2-2,6.22,6.22,0,0,1-.6-2.1,1.43,1.43,0,0,1,.7.2c1.1.4,1.2.3.6-.4a4.69,4.69,0,0,1-1-4.7L9,9.8l1,1a12.76,12.76,0,0,0,7.5,3.7l.8.1v-.8a4.62,4.62,0,0,1,3.1-4.6,5.29,5.29,0,0,1,2.8-.1,5.62,5.62,0,0,1,1.3.7l.8.5.9-.3a10.87,10.87,0,0,0,1.4-.5,4.2,4.2,0,0,0,.5-.2A4.34,4.34,0,0,1,28,11c-.7.7-.5.8.9.3C29.7,11.1,29.7,11.1,29.6,11.4Z"/></svg>