<?xml version="1.0" encoding="utf-8"?>
<!-- Generator: Adobe Illustrator 21.1.0, SVG Export Plug-In . SVG Version: 6.00 Build 0)  -->
<svg version="1.1" id="Layer_1" xmlns="http://www.w3.org/2000/svg" xmlns:xlink="http://www.w3.org/1999/xlink" x="0px" y="0px"
	 viewBox="0 0 35.2 34.8" style="enable-background:new 0 0 35.2 34.8;" xml:space="preserve">
<title>ic_dribbble</title>
<path d="M17.6,0C7.9,0,0.1,7.7,0,17.4C0.1,27,7.9,34.8,17.6,34.8c9.7,0,17.5-7.7,17.6-17.4C35.1,7.7,27.2,0,17.6,0z M29.6,11.4
	c-0.1,0.2-0.6,0.7-1.1,1.2c-0.9,0.9-0.9,1-0.9,1.7c0,1.1-0.5,3.5-1.1,4.8c-1,2.4-3.1,4.9-5.2,6.2c-3,1.8-7,2.2-10.3,1.2
	c-1.1-0.4-3-1.2-3-1.4c0,0,0.6-0.1,1.3-0.1c1.5,0,3-0.4,4.2-1.2l0.9-0.5l-1-0.3c-1.4-0.5-2.6-1.6-2.9-2.6C10.2,20,10.2,20,11.1,20
	l0.9,0l-0.8-0.4c-0.9-0.5-1.7-1.2-2.2-2c-0.3-0.6-0.7-2-0.6-2.1c0,0,0.4,0,0.7,0.2c1.1,0.4,1.2,0.3,0.6-0.4c-1.2-1.2-1.5-3-1-4.7
	l0.3-0.8l1,1c2.1,2.1,4.6,3.3,7.5,3.7l0.8,0.1l0-0.8c-0.1-2,1.1-3.9,3.1-4.6c0.7-0.3,2-0.3,2.8-0.1c0.3,0.1,0.9,0.4,1.3,0.7l0.8,0.5
	l0.9-0.3c0.5-0.1,1.1-0.4,1.4-0.5c0.3-0.1,0.5-0.2,0.5-0.2c0,0.3-0.6,1.2-1.1,1.7c-0.7,0.7-0.5,0.8,0.9,0.3
	C29.7,11.1,29.7,11.1,29.6,11.4z"/>
</svg>
