<?xml version="1.0" encoding="utf-8"?>
<!-- Generator: Adobe Illustrator 20.1.0, SVG Export Plug-In . SVG Version: 6.00 Build 0)  -->
<svg version="1.1" id="Layer_1" xmlns="http://www.w3.org/2000/svg" xmlns:xlink="http://www.w3.org/1999/xlink" x="0px" y="0px"
	 viewBox="0 0 35.2 34.8" style="enable-background:new 0 0 35.2 34.8;" xml:space="preserve">
<style type="text/css">
	.st0{fill:#FFFFFF;}
</style>
<title>ic_upwork</title>
<path class="st0" d="M17.6,0C7.9-0.1,0.1,7.7,0,17.4C0.1,27,7.9,34.8,17.6,34.8c0,0,0,0,0,0c9.7,0.1,17.5-7.7,17.6-17.4c0,0,0,0,0,0
	C35.1,7.7,27.2-0.1,17.6,0z M23.8,22.5c-1.2,0-2.3-0.3-3.3-1l-1,5.2H17l1.5-7.1c-0.6-0.9-1.2-1.9-1.7-2.9v1.1c0,2.6-2.1,4.7-4.7,4.7
	s-4.7-2.1-4.7-4.7c0,0,0,0,0,0v-6.3h2.3v6.4c0,1.3,1,2.3,2.3,2.3s2.3-1,2.3-2.3v-6.4h2.4c0.6,1.9,1.4,3.6,2.4,5.3
	c0.5-2.2,2.4-3.9,4.7-3.9c2.7,0.1,4.8,2.4,4.7,5.1C28.4,20.3,26.3,22.3,23.8,22.5L23.8,22.5z M23.8,15.1c-1.8,0-2.3,1.7-2.5,2.8l0,0
	l-0.3,1c0.8,0.7,1.7,1,2.7,1.1c1.3,0,2.4-1.1,2.5-2.4C26.2,16.2,25.2,15.2,23.8,15.1L23.8,15.1z"/>
</svg>
