<svg id="Layer_3" data-name="Layer 3" xmlns="http://www.w3.org/2000/svg" viewBox="0 0 21 15.38"><defs><style>.cls-1{fill:#00cee2;}</style></defs><title>Artboard 1</title><path class="cls-1" d="M15.64,9.77V7.69a.51.51,0,0,0-.51-.51H11.25V6.25h2.33a.51.51,0,0,0,.51-.51v-4a.51.51,0,0,0-.51-.51h-6A.51.51,0,0,0,7,1.74v4a.51.51,0,0,0,.51.51h2.67v.93H6.34a.51.51,0,0,0-.51.51V9.21L3.27,11.78a.51.51,0,0,0,0,.72L6,15.23a.51.51,0,0,0,.72,0l2.71-2.72a.51.51,0,0,0,0-.72L6.85,9.21v-1h7.77V9.77a2.74,2.74,0,1,0,1,0Zm-9.3,4.37-2-2,1.89-1.9h.19l1.89,1.9Zm8.79.07a1.73,1.73,0,1,1,1.72-1.73A1.73,1.73,0,0,1,15.13,14.2Z"/></svg>