<svg id="Layer_1" data-name="Layer 1" xmlns="http://www.w3.org/2000/svg" viewBox="0 0 35.16 34.75"><title>ic_upwork</title><path d="M18.21.63A17.48,17.48,0,0,0,.63,18,17.48,17.48,0,0,0,18.21,35.38,17.48,17.48,0,0,0,35.79,18,17.48,17.48,0,0,0,18.21.63Zm6.24,22.45a6,6,0,0,1-3.33-1l-1,5.18H17.62l1.51-7.09a22.42,22.42,0,0,1-1.73-2.92v1.09a4.71,4.71,0,1,1-9.42,0V12h2.33v6.35a2.29,2.29,0,1,0,4.58,0v-6.4h2.42a21.12,21.12,0,0,0,2.42,5.27,4.9,4.9,0,0,1,4.71-3.92,4.9,4.9,0,0,1,0,9.79Zm0-7.31c-1.77,0-2.33,1.74-2.51,2.78v0l-.26,1a4.39,4.39,0,0,0,2.72,1.09,2.55,2.55,0,0,0,2.46-2.44A2.42,2.42,0,0,0,24.49,15.76Z" transform="translate(-0.63 -0.63)"/></svg>