<svg id="Layer_7" data-name="Layer 7" xmlns="http://www.w3.org/2000/svg" viewBox="0 0 21 15.38"><defs><style>.cls-1{fill:#00cee2;}</style></defs><title>Artboard 1</title><path class="cls-1" d="M17.08,4.67a5.74,5.74,0,0,0-.43-1.48,4.27,4.27,0,0,0-1.54-1.77A5.63,5.63,0,0,0,13.34.64a8.73,8.73,0,0,0-2.1-.3H9.61A9.56,9.56,0,0,0,8.26.49a6.06,6.06,0,0,0-2.06.74A4.37,4.37,0,0,0,4.33,3.42a6.13,6.13,0,0,0-.42,2.1V7.6a5.7,5.7,0,0,0,.1.7A5.89,5.89,0,0,0,4.47,10a4.42,4.42,0,0,0,1.07,1.46A5,5,0,0,0,7,12.35c.1,0,.08,0,.08.13v2.64a.4.4,0,0,0,0,.1.15.15,0,0,0,.26.11.64.64,0,0,0,.12-.11l1.05-1.27.88-1a.14.14,0,0,1,.13-.06,4.54,4.54,0,0,0,.54,0h1a9.92,9.92,0,0,0,1.69-.13A6.12,6.12,0,0,0,14.79,12,4.33,4.33,0,0,0,16.56,10a6,6,0,0,0,.51-2.18v-2A6.65,6.65,0,0,0,17.08,4.67Zm-3,4.89a1.58,1.58,0,0,1-.3.59,1.93,1.93,0,0,1-.88.66,1.2,1.2,0,0,1-.3.06,1,1,0,0,1-.38-.07,2.39,2.39,0,0,1-.39-.14,10.54,10.54,0,0,1-1.59-.88,9.83,9.83,0,0,1-2-1.91A10.25,10.25,0,0,1,7.14,6.11a10.37,10.37,0,0,1-.58-1.23,2.08,2.08,0,0,1-.1-.6,1.43,1.43,0,0,1,.65-1.2,1.55,1.55,0,0,1,.57-.26.68.68,0,0,1,.65.12,2.23,2.23,0,0,1,.32.32,5.84,5.84,0,0,1,.83,1.25,1.58,1.58,0,0,1,.07.26.68.68,0,0,1-.14.65,1.33,1.33,0,0,1-.19.17L9,5.74a.51.51,0,0,0-.14.51A1.39,1.39,0,0,0,9,6.53a3.46,3.46,0,0,0,.68,1,3.28,3.28,0,0,0,.56.47,3.06,3.06,0,0,0,.62.27.38.38,0,0,0,.49-.15,2.19,2.19,0,0,1,.17-.23.88.88,0,0,1,.44-.28.82.82,0,0,1,.56.07,2.5,2.5,0,0,1,.46.29c.29.21.58.44.88.68a1.43,1.43,0,0,1,.2.22.73.73,0,0,1,.08.66Zm-.8-3.34a.31.31,0,0,1-.6,0,1.41,1.41,0,0,1,0-.19,3.15,3.15,0,0,0-.2-.88,1.41,1.41,0,0,0-.78-.81,3.19,3.19,0,0,0-.79-.24.7.7,0,0,1-.21-.06A.22.22,0,0,1,10.64,4a.35.35,0,0,1,0-.37.27.27,0,0,1,.25-.19,1,1,0,0,1,.29,0,2.74,2.74,0,0,1,.8.24,2.65,2.65,0,0,1,.84.67,2.49,2.49,0,0,1,.45.82,2.7,2.7,0,0,1,.11.73,1.49,1.49,0,0,1-.09.33Zm-1-.34a.76.76,0,0,1,0,.26.29.29,0,0,1-.25.21.28.28,0,0,1-.3-.14A.42.42,0,0,1,11.68,6a1.37,1.37,0,0,0-.07-.32.66.66,0,0,0-.46-.41l-.18,0h-.11A.28.28,0,0,1,10.64,5a.34.34,0,0,1,.23-.34.74.74,0,0,1,.42,0,1.4,1.4,0,0,1,.77.61A1.15,1.15,0,0,1,12.29,5.88Zm2.08.5a.32.32,0,0,1-.32.31l-.13,0a.34.34,0,0,1-.19-.31,1.52,1.52,0,0,0-.05-.49,4.06,4.06,0,0,0-.47-1.43,2.47,2.47,0,0,0-.75-.8,3.48,3.48,0,0,0-1.18-.49,4,4,0,0,0-.55-.1L10.61,3a.27.27,0,0,1-.19-.29.31.31,0,0,1,.34-.34A3.22,3.22,0,0,1,12.69,3a3.8,3.8,0,0,1,.88.88,3.71,3.71,0,0,1,.78,2.22A.74.74,0,0,1,14.36,6.38Z"/></svg>