<svg id="Layer_1" data-name="Layer 1" xmlns="http://www.w3.org/2000/svg" viewBox="0 0 35.16 34.78"><title>ic_linkedin</title><path d="M18.21.61A17.49,17.49,0,0,0,.63,18,17.49,17.49,0,0,0,18.21,35.39,17.49,17.49,0,0,0,35.79,18,17.49,17.49,0,0,0,18.21.61Zm-4.7,25.06H10V14.35h3.54Zm-1.79-12.8a2.09,2.09,0,1,1,2.1-2.09A2.09,2.09,0,0,1,11.72,12.87Zm15.07,12.8H23.27V19.73c0-1.63-.63-2.54-1.93-2.54s-2.16.95-2.16,2.54v5.94h-3.4V14.35h3.4v1.53A4,4,0,0,1,22.63,14c2.43,0,4.17,1.47,4.17,4.5Z" transform="translate(-0.63 -0.61)"/></svg>